PathFileType	4	(X/Y/Z)	Kaydara	
DataRate	CameraRate	NumFrames	NumMarkers	Units	OrigDataRate	OrigDataStartFrame	OrigNumFrames	
120.00	120.00	4	72	mm	120.00	229	261	
Frame#	Time	Hips			RightUpLeg			RightLeg			RightFoot			RightFoot_End			LeftUpLeg			LeftLeg			LeftFoot			LeftFoot_End			Spine			Spine1			Spine2			Spine3			Neck			Head			Head_End			RightShoulder			RightArm			RightForeArm			RightHand			RightHandThumb1			RightHandThumb2			RightHandThumb3			RightHandThumb3_End			RightInHandIndex			RightHandIndex1			RightHandIndex2			RightHandIndex3			RightHandIndex3_End			RightInHandMiddle			RightHandMiddle1			RightHandMiddle2			RightHandMiddle3			RightHandMiddle3_End			RightInHandRing			RightHandRing1			RightHandRing2			RightHandRing3			RightHandRing3_End			RightInHandPinky			RightHandPinky1			RightHandPinky2			RightHandPinky3			RightHandPinky3_End			LeftShoulder			LeftArm			LeftForeArm			LeftHand			LeftHandThumb1			LeftHandThumb2			LeftHandThumb3			LeftHandThumb3_End			LeftInHandIndex			LeftHandIndex1			LeftHandIndex2			LeftHandIndex3			LeftHandIndex3_End			LeftInHandMiddle			LeftHandMiddle1			LeftHandMiddle2			LeftHandMiddle3			LeftHandMiddle3_End			LeftInHandRing			LeftHandRing1			LeftHandRing2			LeftHandRing3			LeftHandRing3_End			LeftInHandPinky			LeftHandPinky1			LeftHandPinky2			LeftHandPinky3			LeftHandPinky3_End			
		X1	Y1	Z1	X2	Y2	Z2	X3	Y3	Z3	X4	Y4	Z4	X5	Y5	Z5	X6	Y6	Z6	X7	Y7	Z7	X8	Y8	Z8	X9	Y9	Z9	X10	Y10	Z10	X11	Y11	Z11	X12	Y12	Z12	X13	Y13	Z13	X14	Y14	Z14	X15	Y15	Z15	X16	Y16	Z16	X17	Y17	Z17	X18	Y18	Z18	X19	Y19	Z19	X20	Y20	Z20	X21	Y21	Z21	X22	Y22	Z22	X23	Y23	Z23	X24	Y24	Z24	X25	Y25	Z25	X26	Y26	Z26	X27	Y27	Z27	X28	Y28	Z28	X29	Y29	Z29	X30	Y30	Z30	X31	Y31	Z31	X32	Y32	Z32	X33	Y33	Z33	X34	Y34	Z34	X35	Y35	Z35	X36	Y36	Z36	X37	Y37	Z37	X38	Y38	Z38	X39	Y39	Z39	X40	Y40	Z40	X41	Y41	Z41	X42	Y42	Z42	X43	Y43	Z43	X44	Y44	Z44	X45	Y45	Z45	X46	Y46	Z46	X47	Y47	Z47	X48	Y48	Z48	X49	Y49	Z49	X50	Y50	Z50	X51	Y51	Z51	X52	Y52	Z52	X53	Y53	Z53	X54	Y54	Z54	X55	Y55	Z55	X56	Y56	Z56	X57	Y57	Z57	X58	Y58	Z58	X59	Y59	Z59	X60	Y60	Z60	X61	Y61	Z61	X62	Y62	Z62	X63	Y63	Z63	X64	Y64	Z64	X65	Y65	Z65	X66	Y66	Z66	X67	Y67	Z67	X68	Y68	Z68	X69	Y69	Z69	X70	Y70	Z70	X71	Y71	Z71	X72	Y72	Z72	

229	1.9	7081.203	893.81699	129.612	7073.0372493445	848.3283646574407	70.13098142543785	7007.929498046079	439.76882680522675	38.134142034436785	7123.74949233476	122.26684673805175	-130.0636183657101	7068.173719070812	11.275665074360827	6.971226368553239	7100.156514179091	912.5229549622806	202.88687411931906	6988.165034686767	521.784121010659	300.6211417547009	6882.208236566816	93.67740552860631	342.9640142181198	6740.248451900084	14.222384995863411	244.4287314998083	7040.83640413998	1017.4184032226899	70.62913135770317	6989.410260236587	1085.7988375192358	24.94570324848484	6930.839496352302	1152.3752106734687	-23.264766824807715	6867.447523651995	1208.2811186283755	-70.14650883238863	6799.067921462189	1268.5189432697266	-118.92459460477401	6735.270313885784	1322.8539625239264	-160.4566298661763	6596.32430973915	1400.066987860576	-161.45381463209344	6816.995944466094	1231.6434981870816	-114.33939936904473	6791.78060814532	1167.1898633773287	-131.56886456501053	6841.254666661986	1078.0310732090509	7.46740349050522	6769.792604149702	991.9810156224845	99.14230804209157	6770.789257919725	1002.1538113419352	101.28056168802792	6771.236022795307	1000.7800568739996	111.23136011498406	6771.129625501768	996.8869776921533	119.96830003840566	6770.683744074086	991.1294755912628	128.7979225160999	6769.308592891365	992.8757743092043	107.84238816743905	6767.346774631726	981.9882540406795	128.3299473470965	6766.384244835438	972.7300086020061	143.18920148045655	6766.499228259712	969.2879163567507	149.69570824124304	6767.075597534128	967.999596267421	153.23866812421875	6768.260414984892	985.1882706751896	112.0732126454042	6765.779842469593	970.4112152811758	134.3444443429413	6764.598091567632	959.3274939336395	151.0513904220899	6764.673743070471	954.7039267282952	159.1375996949415	6765.273737808143	953.0653938688412	163.12913517221682	6767.562731062059	980.030594394703	114.5492575552218	6764.712911684664	962.2976219036941	136.68672299641182	6763.552541182947	951.6575280572247	151.71678617304636	6763.5562875134965	946.6775728847011	159.76522363681545	6764.087630146755	944.8904519115208	163.63609856437	6766.8722374760055	974.4352866272008	116.73245662323737	6763.807890716387	954.7033233359051	138.42217026006	6762.687821369632	944.7323851446235	151.09155862231674	6762.598215043803	940.3982144834396	157.2687472202793	6763.015758647984	938.4112399489486	160.87417820862123	6826.225618438064	1265.0948720145852	-89.99842276493868	6850.531767715801	1309.6969480693992	-43.026077368346954	6871.9570693246615	1141.8548045853931	40.755183844969196	6835.776445318	1017.6784368634515	97.67118469219042	6829.517565315806	1028.6461367428512	90.66014600875647	6825.285454156697	1026.1640416576156	87.87076624319675	6822.912631245994	1021.3746757304789	88.23055542847447	6821.425910834871	1014.7635252842213	90.50006754948183	6830.8866535391135	1019.1598925364463	98.53616826485899	6826.04573073161	1007.993077363398	107.24510332516365	6823.2954892494545	997.6594618377652	111.88430100734436	6821.832920058534	993.1882626995834	111.43707317085159	6820.789135998144	990.8049501009234	108.81976095751821	6832.646871808171	1011.101785109327	104.42741180798677	6828.877106618836	995.8521055686149	116.10882868341577	6826.124779012907	983.5458465553122	121.9184272060684	6824.479603780157	977.6571392594503	121.73746894352934	6823.395540794212	974.8090315824057	119.04798317266463	6834.010508023228	1005.6974811999648	108.39855490866745	6831.805573494916	987.3504840137673	122.40600266238084	6829.666844349832	975.5952942620008	128.21474619811414	6828.218128423573	969.3687119768205	128.43586584782096	6827.264318997245	966.4318215440051	126.09456700832592	6835.749908007294	999.7623867665056	112.47729760085002	6834.786618527526	979.2847753441465	127.94693256864696	6833.489597134928	968.3462696626199	133.6994429313654	6832.633937281903	963.0666916975646	134.39336052170603	6831.90471570509	960.0404276895987	132.62588630445387
230	1.908	7081.203	893.81699	129.612	7072.145227970014	847.8899469961591	69.91090298436059	7007.671807244394	439.24688513048085	37.85764139328335	7124.300586854449	122.3617407781771	-131.76969466053274	7069.243312058782	10.9796993323044	5.2103713440877115	7101.052677507786	912.9586423686121	203.09685675374493	6988.990744542636	522.1757589964207	300.5852991556439	6883.163954771589	93.70650744229839	341.69868961509036	6741.225447602322	13.872850463057425	243.36865768152546	7040.919087949738	1017.4317702589133	70.60165453100798	6989.490003406713	1085.8482147533794	24.979858734446445	6930.902885527568	1152.469210083957	-23.143213050554664	6867.465912005889	1208.4237281857795	-69.89800339883725	6799.051308936432	1268.7090636732914	-118.55825104382065	6735.321324473232	1323.1611314163865	-160.05113349700494	6596.382353823867	1400.3884340417733	-160.8945310647996	6816.717969453854	1231.508408016914	-113.99594025376317	6790.3603574623885	1165.8521864777626	-130.81866485536924	6839.117791254479	1077.7181484599837	10.617277516777733	6765.064528938302	991.3293328516471	104.68086935698682	6765.912361083939	1001.3108049272937	107.0234224663925	6766.316482141669	999.7958494048764	117.44082860394337	6766.165486412111	995.8189294323039	126.52726504278783	6765.669677568746	990.0039300753122	135.66925024118441	6764.345668657927	992.0637341109172	113.67766256840744	6762.051765697281	980.9997410829789	134.7718573158732	6760.959393184471	971.6370024489293	150.12986146906218	6761.08713985011	968.1418886293019	156.92141048565225	6761.737132690591	966.8177377112946	160.6834158928773	6763.273332994699	984.4226581544758	117.95778748584289	6760.455759241288	969.4985840323848	140.84735807001954	6759.130340170786	958.3075611622825	158.10317263251153	6759.220438306357	953.6232507995408	166.5354980396212	6759.9005279902485	951.9470805328714	170.7677897408015	6762.565864287734	979.3021599823513	120.45268628676493	6759.402044147723	961.4693329807556	143.15922067407445	6758.1149684788215	950.742817721757	158.67144614026756	6758.13186211068	945.7080430647704	167.0557402069481	6758.738141042613	943.8873209755943	171.15393443142665	6761.883101289713	973.7558099621214	122.64395186628519	6758.531415047149	953.9619620086785	144.8591150356318	6757.308948615652	943.9333385255829	157.9179991720058	6757.228479096355	939.564753885624	164.34180673604203	6757.712143449755	937.5512207609053	168.14955166233744	6826.491607610539	1265.5902306517094	-89.67003640773943	6851.773447027666	1311.5319769221555	-42.5697246950791	6871.488302378321	1142.6016905494287	43.278591560472165	6832.804584230633	1017.414544318079	101.95224173159741	6826.295001509506	1028.212386513742	94.9293335844323	6821.714550447833	1025.618165278793	91.98342282785424	6819.088711504791	1020.7608216906947	92.26222585314378	6817.382138180765	1014.1016475245308	94.48819549385368	6827.605373065069	1018.74139763625	102.92939656842407	6822.245587594121	1007.3991433975305	111.8068103198969	6819.125287968596	996.9722380218368	116.43143293770652	6817.476483990975	992.4642285596861	115.86688790172383	6816.30811834526	990.0647399802206	113.07945030689271	6829.354850208949	1010.7182547719183	108.88472601509696	6825.07319464573	995.3163613855725	120.76517364046052	6821.917314526735	982.9135231353637	126.5666127311645	6820.0475762056885	976.9829098200744	126.24783182262254	6818.827257865862	974.1183201315093	123.37400456283075	6830.724058087847	1005.3428690274809	112.898401718739	6828.064969440184	986.8837964897599	127.12569223385299	6825.575570209384	975.0500045620165	132.9349091452449	6823.910812480769	968.7859621651994	133.02711578708033	6822.829157495164	965.8349779473631	130.51439814563707	6832.485543965338	999.4482450873243	117.00903323354271	6831.118886050259	978.8918554006362	132.70523888116242	6829.544707967334	967.899598907618	138.46899179513514	6828.5332305199945	962.5971433028685	139.07413474514556	6827.691773839976	959.5609532073263	137.15783566373952
231	1.917	7081.203	893.81699	129.612	7071.261210840032	847.4562304586792	69.69308285001917	7007.419571608865	438.7303527911394	37.57970413389871	7124.843918240549	122.45581994336571	-133.46446169127648	7070.300282020797	10.686253513971758	3.4607542945648078	7101.941042307058	913.3897215707527	203.3045622010857	6989.809059558081	522.5629711738791	300.5485038194562	6884.1112195557425	93.73434837163694	340.4430407358082	6742.193828941322	13.52449224522298	242.31701753287365	7040.999873503931	1017.4446868592468	70.57488809064378	6989.567154674303	1085.8964087248419	25.014574198360524	6930.963068485057	1152.5611167860295	-23.021414461567748	6867.480737836558	1208.563163792481	-69.64982190951626	6799.030666927368	1268.89493204451	-118.19269436945233	6735.367275868225	1323.4625845014202	-159.64644042574636	6596.435406422152	1400.7043175153217	-160.33668098312918	6816.438375690549	1231.3721170747212	-113.65327069272007	6788.947312578475	1164.5228651234163	-130.07298199093958	6836.994621221054	1077.4052096618186	13.743448731579875	6760.37158136293	990.6785776769374	110.18178616723335	6761.0712278913215	1000.4690128209455	112.72676722349485	6761.432595347401	998.8127805168396	123.60803204868037	6761.237101636153	994.751966084972	133.04198810934534	6760.691600460921	988.8794239329065	142.4946345333393	6759.419352203331	991.2529732421926	119.47305860929242	6756.795626106014	980.0128593809362	141.17009887056588	6755.5741748287755	970.5456477999804	157.0240375531177	6755.714395546459	966.9973751309367	164.09912572429056	6756.437257157243	965.6371786739876	168.07909934305906	6758.323222732991	983.65829950003	123.80243750373035	6755.1710506945765	968.5875361987507	147.3066251891203	6753.702836754342	957.2892291193523	165.10824191574864	6753.807051663221	952.5440076867051	173.88487287256117	6754.5664196634	950.8299639648935	178.3567434090332	6757.606178490489	978.5749548108691	126.31625473097475	6754.130721516582	960.6425541249503	149.588580509252	6752.717738507018	949.8296271104931	165.5803075797972	6752.747480729566	944.7398681185155	174.29871813341322	6753.427937345163	942.8853216014396	178.62312761558735	6756.931244294384	973.0775054859932	128.51576592564874	6753.29448101357	953.2220032532658	151.253483829536	6751.970303173415	943.1356924935609	164.69976606303422	6751.898775221735	938.7325689310788	171.36893926028333	6752.447901345156	936.6922766924554	175.3780292850857	6826.7515025481525	1266.0788971179009	-89.34226795710245	6853.002139745371	1313.348397897643	-42.11496239980944	6871.023662122978	1143.3387975479484	45.78447811748042	6829.8574156761615	1017.1496069012862	106.20313339699914	6823.098742647169	1027.778526334547	99.1677845707143	6818.172644519897	1025.0733870702072	96.06592412893599	6815.295802058877	1020.1488996233285	96.26402830931801	6813.371170957857	1013.4423903977982	98.4465944682922	6824.351005368967	1018.3228379292716	107.29124385332887	6818.476398051532	1006.8066735561873	116.33558234354234	6814.9890232655625	996.2876151223958	120.94546079757265	6813.155507534467	991.7434295394135	120.26421049670319	6811.863597320302	989.3282409786931	117.30763769941308	6826.089982093172	1010.3345893837628	113.3104370546057	6821.300507596108	994.7819354097644	125.38827933074634	6817.74434885906	982.2837442516848	131.18135133657023	6815.651893986021	976.311983275842	130.7254749596665	6814.296459376748	973.431429107381	127.66838425179711	6827.464828544065	1004.9880326768008	117.36651772641719	6824.355292579453	986.4181084107662	131.81204368100498	6821.518089669771	974.5067664459176	137.62153202638189	6819.639078102523	968.2059865473778	137.5855159568379	6818.430651821587	965.2413909433858	134.90238787252065	6829.248360638794	999.1337360256554	121.50901743894275	6827.481710872822	978.4996009589007	137.43027162458847	6825.63267532298	967.4544047278338	143.20507978310263	6824.4666863209995	962.1295833500104	143.7219392147532	6823.513947249949	959.0838857405593	141.6577013846826
232	1.925	7081.203	893.81699	129.612	7070.385444561665	847.0273220379123	69.47755934564412	7007.172832334137	438.2193651710437	37.300392833522444	7125.379365810524	122.54904736812654	-135.1474654968802	7071.344356855855	10.395402610919422	1.7228468466498015	7102.821360805492	913.8160867896412	203.50995578328573	6990.619770120495	522.9456618752932	300.51079875605643	6885.049811175425	93.7609092791197	339.19740593326645	6743.153367879313	13.177391289570714	241.2740968872294	7041.078740423825	1017.4571493009222	70.54883688903516	6989.6416966936	1085.943405017391	25.04983363037443	6931.020034677327	1152.6509030934121	-22.899415527054266	6867.4920049235825	1208.6993828043717	-69.40204859131359	6799.006011505989	1269.0764913699968	-117.82804682928789	6735.408170242985	1323.7582333434445	-159.24269116396835	6596.483468169692	1401.014546021856	-159.78045668573174	6816.157253229937	1231.234649100791	-113.31151546179778	6787.541885227995	1163.202209177862	-129.332097185289	6834.8856651061715	1077.0922008855998	16.845012269537563	6755.714912076872	990.0286749475401	115.64345415484718	6756.267040151924	999.6283944733489	118.38892495996441	6756.585539694904	997.8308410369611	129.7311690103222	6756.345649443306	993.6860969347534	139.51057104273085	6755.750695384559	987.7559789331445	149.27209147249835	6754.530848751701	990.4434419085909	125.22688114880268	6751.579635087301	979.0275864156356	147.52280228734486	6750.229889973933	969.4559424848204	163.86972146706637	6750.382282725466	965.8543877401667	171.2267685698123	6751.177230242373	964.4579436053408	175.4235753309688	6753.411296657521	982.8951348042557	129.60545672679433	6749.927005391085	967.6780330058157	153.72036359179077	6748.316893445435	956.272479813553	172.06456410263883	6748.434880115085	951.4661956659343	181.18359655576091	6749.272679247392	949.7140558648307	185.89380513666225	6752.684889701864	977.8489111010509	132.13825381824643	6748.900232158441	959.8172295738138	155.97293318213428	6747.362160741925	948.9179170900952	172.4413680079434	6747.404438529436	943.7730238149279	181.49206444135461	6748.158285627752	941.8844418059356	186.04152537009531	6752.017881725736	972.4002957983063	134.3461904343933	6748.098370910704	952.4833746653462	157.60342200562957	6746.673184807	942.3393855904385	171.43489774616523	6746.610393016877	937.9016078851471	178.34811710350493	6747.224296766525	935.834366198829	182.5575303611251	6827.005237101029	1266.5607397664533	-89.01521628350206	6854.217498448789	1315.1457295005246	-41.661861946518876	6870.56320572159	1144.0658380653024	48.27215388054414	6826.935659146485	1016.883486279581	110.42262970591344	6819.929576225308	1027.3444422421796	103.37425798745849	6814.660628212535	1024.5296069226736	100.11705802765937	6811.534869985407	1019.5388167146349	100.23476384770012	6809.394041166651	1012.7856651597251	102.37407057424483	6821.124351851518	1017.9040939339613	111.62043651365892	6814.739104979626	1006.2155655055543	120.83008276736709	6810.887744793483	995.6054991151201	125.42504029526268	6808.871098221113	991.0257753770761	124.62772230252173	6807.456722625244	988.5953650023631	121.50304621013166	6822.853071331094	1009.9506622960255	117.70325638720115	6817.55998866416	994.2487138419883	129.97678765659234	6813.606941596742	981.6564041665235	135.76127484200742	6811.29368647797	975.644257945793	135.16906028051122	6809.804320796538	972.7482589662795	131.9298294223905	6824.233621357105	1004.6328400226398	121.80160502482315	6820.677467970548	985.9532944860371	136.46368738255336	6817.495428892606	973.9654606007293	142.27323478771316	6815.404018566152	967.6286691666058	142.10971446978454	6814.069938524814	964.6509463209487	139.2572264408424	6826.039154010136	998.8187204519371	125.97594669020879	6823.875998102116	978.1078749287124	142.12065658373683	6821.754484194996	967.0105531538782	147.90632207637447	6820.435338113002	961.6638795117764	148.335408568133	6819.372307395169	958.6090940446326	146.12415480703612
